<?xml version="1.0" standalone="no"?>
<!DOCTYPE svg PUBLIC "-//W3C//DTD SVG 20010904//EN"
 "http://www.w3.org/TR/2001/REC-SVG-20010904/DTD/svg10.dtd">
<svg version="1.0" xmlns="http://www.w3.org/2000/svg"
 width="700.000000pt" height="700.000000pt" viewBox="0 0 700.000000 700.000000"
 preserveAspectRatio="xMidYMid meet">
<metadata>
Created by potrace 1.14, written by Peter Selinger 2001-2017
</metadata>
<g transform="translate(0.000000,700.000000) scale(0.100000,-0.100000)"
fill="#000000" stroke="none">
<path d="M1192 5539 c-16 -3 -39 -13 -50 -21 -39 -27 -95 -123 -106 -182 -3
-11 -14 -48 -26 -81 -106 -297 -433 -1301 -437 -1341 -4 -44 -1 -55 21 -82 38
-44 121 -68 251 -71 21 -1 21 -2 21 -1141 l0 -1139 24 -26 23 -25 2572 0 2572
0 24 21 24 21 3 1144 2 1144 43 1 c23 0 51 2 62 4 11 2 36 7 55 10 112 21 160
98 120 194 -33 79 -93 257 -301 885 -196 593 -202 609 -241 647 -31 30 -49 39
-77 40 -155 5 -4557 3 -4579 -2z m1123 -570 c74 -27 129 -81 149 -147 7 -26
12 -49 10 -51 -4 -4 -70 -10 -170 -15 l-71 -3 -11 31 c-13 34 -52 63 -92 66
-54 5 -81 -1 -100 -20 -48 -48 -8 -83 116 -104 62 -11 203 -56 241 -77 128
-72 154 -224 58 -337 -65 -78 -159 -111 -315 -113 -200 -1 -300 42 -360 157
-11 23 -24 58 -27 78 l-6 36 39 0 c22 1 78 3 127 6 80 5 87 4 87 -13 0 -33 40
-84 78 -100 82 -34 188 9 180 75 -5 39 -46 62 -170 93 -136 34 -196 59 -245
102 -110 97 -72 265 76 329 98 42 302 46 406 7z m1826 7 c142 -44 228 -136
257 -271 13 -60 9 -195 -7 -245 -41 -130 -139 -217 -280 -249 -71 -15 -238
-11 -309 9 -114 32 -204 112 -245 218 -40 100 -31 265 18 362 45 90 157 167
272 188 67 13 239 6 294 -12z m-1271 -126 l5 -135 140 0 140 0 2 115 c1 63 2
124 2 136 1 19 7 20 131 20 l130 -1 0 -387 0 -388 -130 0 c-97 0 -130 3 -131
13 0 6 -2 77 -2 157 l-2 145 -142 1 -143 1 0 -159 0 -159 -130 3 -131 3 0 378
c0 208 3 381 5 386 3 4 60 7 128 7 l123 0 5 -136z m2208 122 c90 -29 145 -95
158 -189 10 -76 -10 -143 -58 -197 -54 -63 -126 -84 -282 -87 l-115 -1 1 -77
c0 -42 0 -106 -1 -143 l-1 -68 -130 0 c-117 0 -130 2 -130 18 -1 38 -1 554 0
653 l0 106 263 -3 c146 -1 277 -7 295 -12z m849 -1215 c7 -7 6 -2157 -1 -2164
-7 -8 -1735 -7 -1742 0 -3 3 -6 340 -6 749 0 738 0 745 -21 806 -31 90 -90
152 -184 199 l-77 38 -391 3 c-372 2 -394 1 -451 -18 -137 -48 -230 -147 -252
-271 -4 -24 -7 -374 -7 -776 l0 -733 -50 -1 c-69 -1 -1621 -1 -1667 0 l-36 1
0 1084 0 1085 21 3 c36 5 4859 0 4864 -5z m-2074 -538 c55 -13 109 -57 132
-105 15 -33 17 -96 17 -776 0 -406 -2 -742 -6 -745 -4 -4 -834 -8 -994 -4
l-32 1 2 753 3 753 28 43 c20 29 44 50 80 66 50 24 55 24 389 25 217 0 353 -4
381 -11z"/>
<path d="M3903 4807 c-73 -22 -113 -105 -109 -228 5 -128 67 -199 174 -199
118 0 173 62 178 203 3 82 -12 145 -44 180 -41 46 -128 65 -199 44z"/>
<path d="M4784 4744 l1 -89 67 2 c76 3 111 20 126 61 22 64 -22 104 -122 110
l-73 4 1 -88z"/>
<path d="M1715 3122 c-11 -2 -31 -11 -45 -22 l-25 -19 -1 -453 c-1 -492 -1
-487 54 -505 15 -5 176 -9 357 -8 313 0 331 1 357 20 15 11 28 29 29 40 6 83
3 884 -4 901 -20 46 -32 48 -377 49 -179 0 -334 -1 -345 -3z m550 -502 l0
-345 -218 0 c-121 0 -221 3 -223 7 -4 7 -6 213 -5 523 l1 160 222 -1 223 0 0
-344z"/>
<path d="M4580 3114 c-16 -7 -33 -21 -39 -33 -7 -13 -11 -166 -11 -466 l0
-446 25 -24 c13 -14 30 -26 37 -26 67 -7 660 -3 681 4 58 19 57 11 57 499 l0
447 -24 28 -24 27 -337 1 c-239 0 -345 -3 -365 -11z m570 -153 c7 -1 7 -681 0
-682 -32 -7 -433 -2 -438 6 -4 6 -7 159 -7 342 0 326 0 332 20 335 17 3 411 2
425 -1z"/>
<path d="M3148 2302 c-29 -3 -58 -35 -58 -62 0 -23 42 -60 69 -60 23 0 71 41
71 60 0 39 -39 68 -82 62z"/>
</g>
</svg>
